<svg xmlns="http://www.w3.org/2000/svg" width="23" height="24"><rect id="backgroundrect" width="100%" height="100%" x="0" y="0" fill="none" stroke="none"/><title/><g class="currentLayer" style=""><title>Layer 1</title><g data-name="Layer 57" id="Layer_57" class="selected" fill="#ffffff" fill-opacity="1"><path d="M20.979881286621094,10.408142566680908 a2,2 0 0 0 -2,2 a7.52,7.52 0 1 1 -4.57,-6.9 l-0.55,0.07 a2,2 0 0 0 0.27,4 l0.27,0 L19.309881286621092,8.908142566680908 a2,2 0 0 0 1.71,-1.71 l0.6600000000000001,-4.91 a2,2 0 1 0 -4,-0.54 l-0.13,0.9500000000000001 A11.49,11.49 0 1 0 22.979881286621094,12.408142566680908 A2,2 0 0 0 20.979881286621094,10.408142566680908 z" id="svg_1" fill="#ffffff" fill-opacity="1"/></g></g></svg>